<svg width="1024" height="1024" viewBox="0 0 1024 1024" fill="none" xmlns="http://www.w3.org/2000/svg">
  <title>Arrow pin 45° up-right — single layered SVG</title>
  <g id="pin">
    <path fill="#FFFFFF" fill-rule="evenodd" transform="translate(0 170) rotate(-135 512 395)"
          d="M512 130 C661 130 783 252 783 401 C783 580 512 894 512 894 C512 894 241 580 241 401 C241 252 363 130 512 130 Z
             M652 395 a140 140 0 1 0 -280 0 a140 140 0 1 0 280 0 Z"/>
  </g>
  <g id="spokes" stroke="#FFFFFF" stroke-width="22" stroke-linecap="round">
    <line x1="512" y1="450" x2="512" y2="680"/>
    <line x1="397" y1="565" x2="627" y2="565"/>
    <line x1="430" y1="483" x2="594" y2="647"/>
    <line x1="430" y1="647" x2="594" y2="483"/>
  </g>
  <g id="hub" fill="#FFFFFF">
    <circle cx="512" cy="565" r="34"/>
  </g>
</svg>
