<svg width="1024" height="1024" viewBox="0 0 1024 1024" fill="none" xmlns="http://www.w3.org/2000/svg">
  <title>Crisp bike in sweep light</title>
  <rect width="1024" height="1024" fill="#F4EFE6"/>
  <path d="M512 512 L856 272 A420 420 0 0 1 932 512 Z" fill="#111111" opacity="0.13"/>
  <path d="M512 512 m-334 0 a334 334 0 1 0 668 0 a334 334 0 1 0 -668 0 M512 512 m-206 0 a206 206 0 1 0 412 0 a206 206 0 1 0 -412 0 M512 512 m-86 0 a86 86 0 1 0 172 0 a86 86 0 1 0 -172 0" stroke="#111111" stroke-width="26" opacity="0.30"/>
  <path transform="translate(420 -86) scale(0.56)" d="M278 652a102 102 0 1 0 204 0a102 102 0 1 0 -204 0 M542 652a102 102 0 1 0 204 0a102 102 0 1 0 -204 0 M380 652 L492 458 L588 652 L444 652 L548 458 H642 L692 652 M642 458 L702 398 H754 M458 406 H540" stroke="#111111" stroke-width="70" stroke-linecap="butt" stroke-linejoin="miter"/>
</svg>
